<svg width="32" height="32" viewBox="0 0 32 32" fill="none" xmlns="http://www.w3.org/2000/svg">
<g clip-path="url(#clip0_2_50)">
<path d="M15.9375 30C23.704 30 30 23.704 30 15.9375C30 8.171 23.704 1.875 15.9375 1.875C8.171 1.875 1.875 8.171 1.875 15.9375C1.875 23.704 8.171 30 15.9375 30Z" fill="white"/>
<path fill-rule="evenodd" clip-rule="evenodd" d="M0.662109 15.9375C0.662109 7.50114 7.50114 0.662109 15.9375 0.662109C24.3739 0.662109 31.2129 7.50114 31.2129 15.9375C31.2129 24.3739 24.3739 31.2129 15.9375 31.2129C7.50114 31.2129 0.662109 24.3739 0.662109 15.9375ZM15.9375 3.08789C8.84086 3.08789 3.08789 8.84086 3.08789 15.9375C3.08789 23.0341 8.84086 28.7871 15.9375 28.7871C23.0341 28.7871 28.7871 23.0341 28.7871 15.9375C28.7871 8.84086 23.0341 3.08789 15.9375 3.08789Z" fill="#363F46"/>
<path d="M8.30304 9.99902C8.30304 9.99902 6.3584 12.1928 6.3584 16.0258C6.3584 19.8588 8.30304 21.9642 8.30304 21.9642" fill="white"/>
<path fill-rule="evenodd" clip-rule="evenodd" d="M9.21546 10.7982C9.21546 10.7982 9.21546 10.7982 9.21546 10.7982C9.21468 10.7991 9.21318 10.8008 9.21099 10.8034C9.20424 10.8115 9.19098 10.8276 9.1721 10.8515C9.13431 10.8995 9.07425 10.9787 8.99912 11.0882C8.84863 11.3074 8.63918 11.6455 8.42709 12.0938C8.00351 12.9891 7.57129 14.3191 7.57129 16.0258C7.57129 17.7315 8.00298 19.0364 8.42267 19.9044C8.63303 20.3395 8.84045 20.6648 8.9888 20.8741C9.06287 20.9786 9.12186 21.0538 9.15858 21.0987C9.17693 21.1211 9.18967 21.136 9.19589 21.1431C9.19761 21.1451 9.19883 21.1465 9.19953 21.1473C9.64827 21.6396 9.61607 22.4025 9.12599 22.8552C8.63391 23.3097 7.86656 23.2792 7.41205 22.7872L8.30304 21.9642C7.41205 22.7872 7.41168 22.7868 7.4113 22.7864L7.40878 22.7836L7.40479 22.7792L7.39471 22.7681C7.38708 22.7596 7.37764 22.7489 7.3665 22.7362C7.34424 22.7106 7.3152 22.6765 7.28037 22.6338C7.21075 22.5487 7.11781 22.4294 7.00958 22.2766C6.7933 21.9714 6.51457 21.5308 6.23877 20.9604C5.68614 19.8174 5.14551 18.1531 5.14551 16.0258C5.14551 13.8996 5.68561 12.2162 6.23434 11.0563C6.50842 10.477 6.78512 10.0272 6.99926 9.71524C7.10643 9.55912 7.1983 9.43704 7.26686 9.35004C7.30115 9.30653 7.32967 9.27173 7.35141 9.24577C7.36228 9.23279 7.37146 9.22202 7.37883 9.21347L7.38852 9.2023L7.39232 9.19798L7.39395 9.19612L7.3947 9.19528C7.39506 9.19488 7.39541 9.19448 8.30304 9.99904L7.39541 9.19448C7.83975 8.69321 8.60632 8.64706 9.10759 9.09141C9.60705 9.53414 9.65466 10.2968 9.21546 10.7982Z" fill="#FC7E0F"/>
<path d="M23.7959 9.99902C23.7959 9.99902 25.7405 12.1928 25.7405 16.0258C25.7405 19.8588 23.7959 21.9642 23.7959 21.9642" fill="white"/>
<path fill-rule="evenodd" clip-rule="evenodd" d="M22.9914 9.0914C23.4926 8.64706 24.2592 8.69322 24.7036 9.19449L23.7959 9.99904C24.7036 9.19449 24.7039 9.19488 24.7043 9.19529L24.705 9.19613L24.7066 9.19798L24.7104 9.20231L24.7201 9.21348C24.7275 9.22203 24.7367 9.2328 24.7476 9.24578C24.7693 9.27173 24.7978 9.30654 24.8321 9.35005C24.9007 9.43705 24.9925 9.55913 25.0997 9.71525C25.3138 10.0272 25.5905 10.4771 25.8646 11.0563C26.4133 12.2162 26.9534 13.8996 26.9534 16.0258C26.9534 18.1531 26.4128 19.8174 25.8602 20.9604C25.5844 21.5308 25.3056 21.9714 25.0894 22.2766C24.9811 22.4294 24.8882 22.5487 24.8186 22.6338C24.7838 22.6764 24.7547 22.7106 24.7325 22.7361C24.7213 22.7489 24.7119 22.7596 24.7042 22.7681L24.6942 22.7792L24.6902 22.7836L24.6885 22.7855L24.6877 22.7863C24.6873 22.7868 24.6869 22.7872 23.7959 21.9642L24.6869 22.7872C24.2324 23.2792 23.465 23.3097 22.973 22.8552C22.4829 22.4026 22.4507 21.6396 22.8994 21.1473C22.8997 21.147 22.9 21.1466 22.9005 21.1461C22.9011 21.1453 22.902 21.1443 22.903 21.1431C22.9093 21.136 22.922 21.1211 22.9404 21.0987C22.9771 21.0538 23.0361 20.9786 23.1101 20.8741C23.2585 20.6648 23.4659 20.3395 23.6763 19.9044C24.0959 19.0364 24.5276 17.7315 24.5276 16.0258C24.5276 14.3191 24.0954 12.9891 23.6718 12.0938C23.4597 11.6455 23.2503 11.3074 23.0998 11.0882C23.0247 10.9787 22.9646 10.8995 22.9268 10.8515C22.908 10.8276 22.8947 10.8115 22.888 10.8034C22.8858 10.8008 22.8843 10.7991 22.8835 10.7981M22.9914 9.0914C22.4919 9.53413 22.4443 10.2968 22.8835 10.7981L22.9914 9.0914Z" fill="#FC7E0F"/>
<path d="M20.6943 12.5625C20.6943 12.5625 22.0042 14.1938 21.972 16.0179C21.9318 18.2116 20.7104 19.417 20.7104 19.417" fill="white"/>
<path fill-rule="evenodd" clip-rule="evenodd" d="M19.9349 11.6167C20.4572 11.1973 21.2206 11.2808 21.64 11.8031L20.6943 12.5625C21.64 11.8031 21.6398 11.8028 21.64 11.8031L21.6419 11.8055L21.6443 11.8084L21.6505 11.8163L21.6683 11.8392C21.6826 11.8576 21.7015 11.8824 21.7244 11.9132C21.7701 11.9748 21.8318 12.0606 21.9042 12.1679C22.0482 12.3816 22.2377 12.6856 22.4262 13.0562C22.7937 13.7787 23.2057 14.8477 23.1847 16.0393C23.1604 17.3634 22.7783 18.4024 22.3936 19.1158C22.2018 19.4715 22.0088 19.7477 21.8574 19.9414C21.7816 20.0384 21.7157 20.1153 21.665 20.1717C21.6396 20.1999 21.6179 20.2231 21.6006 20.2412L21.578 20.2646L21.5693 20.2734L21.5656 20.277L21.5639 20.2787L21.5631 20.2795C21.5627 20.2799 21.5623 20.2803 20.7104 19.417L21.5623 20.2803C21.0855 20.7508 20.3176 20.7457 19.8471 20.269C19.3798 19.7954 19.3816 19.0347 19.8487 18.5634C19.8506 18.5613 19.8547 18.5569 19.8609 18.5501C19.8771 18.5321 19.907 18.4977 19.9463 18.4474C20.0252 18.3464 20.14 18.1842 20.2585 17.9644C20.4946 17.5266 20.7433 16.8655 20.7593 15.9961C20.7703 15.3637 20.5435 14.7052 20.2641 14.1561C20.1292 13.8909 19.9932 13.673 19.8927 13.5238C19.8427 13.4497 19.8024 13.3939 19.7766 13.3591C19.7637 13.3417 19.7545 13.3297 19.7496 13.3233L19.7457 13.3184C19.3295 12.7962 19.4137 12.0352 19.9349 11.6167ZM19.8571 18.555C19.857 18.5551 19.8571 18.5549 19.8571 18.555V18.555Z" fill="#FC7E0F"/>
<path d="M11.3408 12.5625C11.3408 12.5625 10.0309 14.1938 10.0631 16.0179C10.1033 18.2116 11.3247 19.417 11.3247 19.417" fill="white"/>
<path fill-rule="evenodd" clip-rule="evenodd" d="M12.2869 13.3214L12.2879 13.3201L12.2889 13.3189C12.289 13.3188 12.2894 13.3183 12.2889 13.3189C12.2882 13.3197 12.2876 13.3206 12.2869 13.3214ZM11.2758 15.9961C11.2647 15.3637 11.4916 14.7052 11.7709 14.1561C11.9058 13.8909 12.0418 13.673 12.1424 13.5238C12.1923 13.4497 12.2326 13.3939 12.2585 13.3591C12.2714 13.3417 12.2806 13.3297 12.2855 13.3233L12.2889 13.3189C12.7052 12.7967 12.6213 12.0352 12.1002 11.6167C11.5779 11.1973 10.8145 11.2808 10.3951 11.8031L11.3238 12.5489C10.395 11.8031 10.3953 11.8028 10.3951 11.8031L10.3932 11.8055L10.3908 11.8084L10.3846 11.8163L10.3667 11.8392C10.3524 11.8576 10.3335 11.8824 10.3107 11.9132C10.265 11.9748 10.2032 12.0606 10.1309 12.1679C9.98683 12.3816 9.79735 12.6856 9.60881 13.0562C9.2413 13.7787 8.82935 14.8477 8.85038 16.0393C8.87465 17.3634 9.25674 18.4024 9.6414 19.1158C9.83325 19.4715 10.0263 19.7477 10.1776 19.9414C10.2535 20.0384 10.3193 20.1153 10.3701 20.1717C10.3954 20.1999 10.4171 20.2231 10.4344 20.2412L10.457 20.2646L10.4658 20.2734L10.4695 20.277L10.4712 20.2787L10.4719 20.2795C10.4723 20.2799 10.4727 20.2803 11.3247 19.417L10.4727 20.2803C10.9495 20.7508 11.7174 20.7457 12.188 20.269C12.6553 19.7954 12.6535 19.0347 12.1864 18.5634C12.1844 18.5613 12.1803 18.5569 12.1742 18.5501C12.158 18.5321 12.1281 18.4977 12.0888 18.4474C12.0099 18.3464 11.895 18.1842 11.7765 17.9644C11.5405 17.5266 11.2918 16.8655 11.2758 15.9961Z" fill="#FC7E0F"/>
<path d="M15.9358 18.1206C17.1413 18.1206 18.1186 17.1433 18.1186 15.9377C18.1186 14.7322 17.1413 13.7549 15.9358 13.7549C14.7302 13.7549 13.7529 14.7322 13.7529 15.9377C13.7529 17.1433 14.7302 18.1206 15.9358 18.1206Z" fill="#363F46"/>
<path d="M16.3047 17.9767L14.7562 17.5605L12.1777 27.1924L13.7262 27.6085L16.3047 17.9767Z" fill="#363F46"/>
<path d="M15.7051 17.964L17.2467 17.5547L19.8116 27.1934L18.2699 27.6027L15.7051 17.964Z" fill="#363F46"/>
<path d="M14.2725 23.1618L14.8455 22.5752L18.8155 26.4429L18.2425 27.0296L14.2725 23.1618Z" fill="#363F46"/>
<path d="M17.6351 23.1825L17.1166 22.6572L13.1807 26.5659L13.6991 27.0912L17.6351 23.1825Z" fill="#363F46"/>
</g>
<defs>
<clipPath id="clip0_2_50">
<rect width="32" height="32" fill="white"/>
</clipPath>
</defs>
</svg>
